<?xml version="1.0" standalone="no"?>
<!DOCTYPE svg PUBLIC "-//W3C//DTD SVG 20010904//EN"
 "http://www.w3.org/TR/2001/REC-SVG-20010904/DTD/svg10.dtd">
<svg version="1.0" xmlns="http://www.w3.org/2000/svg"
 width="512.000000pt" height="512.000000pt" viewBox="0 0 512.000000 512.000000"
 preserveAspectRatio="xMidYMid meet">
<metadata>
Created by potrace 1.15, written by Peter Selinger 2001-2017
</metadata>
<g transform="translate(0.000000,512.000000) scale(0.100000,-0.100000)"
fill="#000000" stroke="none">
<path d="M1229 4509 c-41 -28 -102 -73 -136 -100 -34 -26 -64 -44 -67 -38 -2
5 -3 4 -2 -3 1 -7 -9 -22 -23 -35 -22 -19 -28 -20 -37 -7 -10 12 -13 12 -25
-3 -9 -11 -10 -14 -1 -9 6 4 17 4 23 0 8 -4 -16 -32 -62 -74 -49 -45 -78 -65
-85 -59 -7 6 -16 4 -24 -6 -7 -9 -8 -15 -2 -15 6 0 12 5 14 12 3 8 7 8 11 2 3
-6 -1 -21 -10 -34 -16 -22 -17 -23 -25 -4 -8 17 -8 17 -4 -3 4 -24 -44 -79
-59 -66 -4 5 -5 2 -1 -5 5 -8 1 -21 -10 -33 -14 -15 -20 -17 -32 -6 -13 10
-14 9 -3 -10 6 -13 8 -23 3 -23 -5 0 -15 -11 -22 -25 -10 -18 -17 -22 -26 -14
-8 7 -14 6 -20 -2 -4 -7 -3 -9 4 -5 18 11 22 -10 6 -33 -8 -12 -20 -18 -26
-15 -7 4 -8 2 -4 -4 4 -6 -5 -29 -20 -52 -27 -41 -41 -52 -30 -25 3 8 1 15 -4
15 -6 0 -10 -5 -10 -11 0 -5 -4 -7 -10 -4 -5 3 -10 1 -10 -4 0 -6 7 -11 15
-11 21 0 19 -8 -18 -68 -31 -49 -52 -61 -41 -24 4 13 2 12 -6 -2 -10 -14 -10
-20 -1 -26 19 -11 -37 -120 -58 -113 -12 4 -13 3 -3 -4 14 -10 5 -46 -9 -37
-5 3 -6 -2 -2 -11 4 -12 25 21 68 104 76 147 174 295 270 410 142 169 370 376
538 486 51 34 64 45 54 45 -2 0 -37 -23 -78 -51z"/>
<path d="M3920 3060 c-19 -19 -20 -33 -20 -538 0 -490 1 -520 18 -535 17 -15
59 -17 395 -17 364 0 378 1 397 20 19 19 20 33 20 535 0 502 -1 516 -20 535
-19 19 -33 20 -395 20 -362 0 -376 -1 -395 -20z m738 -152 l-3 -103 -340 0
-340 0 -3 103 -3 102 346 0 346 0 -3 -102z m-485 -313 l0 -60 -67 -3 -66 -3 0
66 0 66 66 -3 67 -3 0 -60z m207 0 l0 -65 -65 0 -65 0 0 65 0 65 65 0 65 0 0
-65z m210 0 l0 -66 -66 3 -67 3 1 58 c0 31 1 59 1 62 1 3 30 5 66 5 l65 0 0
-65z m-417 -210 l0 -60 -67 -3 -66 -3 0 66 0 66 66 -3 67 -3 0 -60z m207 0 l0
-65 -65 0 -65 0 0 65 0 65 65 0 65 0 0 -65z m210 0 l0 -66 -66 3 -67 3 1 58
c0 31 1 59 1 62 1 3 30 5 66 5 l65 0 0 -65z m-419 -145 c0 -5 1 -36 1 -67 l1
-58 -67 -3 -66 -3 0 64 c0 35 3 67 7 70 10 11 123 8 124 -3z m207 -62 l3 -68
-66 0 -65 0 0 63 c0 35 3 67 7 71 4 4 32 6 63 4 l55 -3 3 -67z m210 0 l3 -68
-64 0 c-35 0 -66 2 -68 4 -2 2 -2 34 -1 71 l4 66 61 -3 62 -3 3 -67z"/>
<path d="M4601 1292 c-83 -141 -205 -298 -335 -431 -198 -202 -381 -338 -621
-463 -71 -37 -127 -68 -122 -68 4 0 48 20 98 46 77 38 93 43 107 32 15 -11 15
-11 5 3 -11 13 -6 19 30 39 219 123 502 370 674 588 22 27 63 38 63 16 0 -8 5
-12 10 -9 8 5 7 11 -1 21 -6 8 -8 14 -4 14 4 0 2 7 -5 15 -13 15 -4 39 11 29
5 -3 8 -1 7 4 -4 13 44 92 54 92 5 0 8 4 8 9 0 19 77 140 85 133 5 -4 5 -1 1
6 -4 6 -8 12 -10 12 -1 0 -26 -40 -55 -88z"/>
</g>
</svg>
